<mxfile host="app.diagrams.net" modified="2023-07-04T15:28:06.995Z" agent="Mozilla/5.0 (Windows NT 10.0; Win64; x64) AppleWebKit/537.36 (KHTML, like Gecko) Chrome/114.0.0.0 Safari/537.36 Edg/114.0.1823.67" etag="Cy5EPUnk-y2NURhHQ-ly" version="21.5.2" type="github">
  <diagram name="Page-1" id="2YBvvXClWsGukQMizWep">
    <mxGraphModel dx="1050" dy="573" grid="1" gridSize="10" guides="1" tooltips="1" connect="1" arrows="1" fold="1" page="1" pageScale="1" pageWidth="850" pageHeight="1100" math="0" shadow="0">
      <root>
        <mxCell id="0" />
        <mxCell id="1" parent="0" />
        <mxCell id="r-QJJK2opc04MjOTLEjq-28" value="User" style="shape=umlActor;verticalLabelPosition=top;verticalAlign=bottom;html=1;labelPosition=center;align=center;" vertex="1" parent="1">
          <mxGeometry x="33" y="20" width="30" height="60" as="geometry" />
        </mxCell>
        <mxCell id="r-QJJK2opc04MjOTLEjq-29" style="edgeStyle=orthogonalEdgeStyle;rounded=0;orthogonalLoop=1;jettySize=auto;html=1;dashed=1;endArrow=none;endFill=0;" edge="1" parent="1" source="r-QJJK2opc04MjOTLEjq-30">
          <mxGeometry relative="1" as="geometry">
            <mxPoint x="158" y="605" as="targetPoint" />
            <Array as="points">
              <mxPoint x="158" y="596" />
            </Array>
          </mxGeometry>
        </mxCell>
        <mxCell id="r-QJJK2opc04MjOTLEjq-30" value="Repository Code Management (GitHub.com)" style="html=1;whiteSpace=wrap;" vertex="1" parent="1">
          <mxGeometry x="103" y="20" width="110" height="60" as="geometry" />
        </mxCell>
        <mxCell id="r-QJJK2opc04MjOTLEjq-31" value="Acure DevOps CI" style="whiteSpace=wrap;html=1;" vertex="1" parent="1">
          <mxGeometry x="238" y="20" width="120" height="60" as="geometry" />
        </mxCell>
        <mxCell id="r-QJJK2opc04MjOTLEjq-32" value="JMeter" style="whiteSpace=wrap;html=1;" vertex="1" parent="1">
          <mxGeometry x="398" y="20" width="120" height="60" as="geometry" />
        </mxCell>
        <mxCell id="r-QJJK2opc04MjOTLEjq-33" value="OpenAI API" style="whiteSpace=wrap;html=1;" vertex="1" parent="1">
          <mxGeometry x="698" y="20" width="120" height="60" as="geometry" />
        </mxCell>
        <mxCell id="r-QJJK2opc04MjOTLEjq-34" value="Dashboard Report" style="whiteSpace=wrap;html=1;" vertex="1" parent="1">
          <mxGeometry x="548" y="20" width="120" height="60" as="geometry" />
        </mxCell>
        <mxCell id="r-QJJK2opc04MjOTLEjq-35" style="edgeStyle=orthogonalEdgeStyle;rounded=0;orthogonalLoop=1;jettySize=auto;html=1;dashed=1;endArrow=none;endFill=0;" edge="1" parent="1">
          <mxGeometry relative="1" as="geometry">
            <mxPoint x="298.5" y="601" as="targetPoint" />
            <mxPoint x="298.5" y="80" as="sourcePoint" />
            <Array as="points">
              <mxPoint x="298" y="335" />
              <mxPoint x="298" y="335" />
            </Array>
          </mxGeometry>
        </mxCell>
        <mxCell id="r-QJJK2opc04MjOTLEjq-36" style="edgeStyle=orthogonalEdgeStyle;rounded=0;orthogonalLoop=1;jettySize=auto;html=1;dashed=1;endArrow=none;endFill=0;" edge="1" parent="1">
          <mxGeometry relative="1" as="geometry">
            <mxPoint x="457.5" y="601" as="targetPoint" />
            <mxPoint x="457.5" y="80" as="sourcePoint" />
          </mxGeometry>
        </mxCell>
        <mxCell id="r-QJJK2opc04MjOTLEjq-37" style="edgeStyle=orthogonalEdgeStyle;rounded=0;orthogonalLoop=1;jettySize=auto;html=1;dashed=1;endArrow=none;endFill=0;" edge="1" parent="1">
          <mxGeometry relative="1" as="geometry">
            <mxPoint x="607.5" y="601" as="targetPoint" />
            <mxPoint x="607.5" y="80" as="sourcePoint" />
          </mxGeometry>
        </mxCell>
        <mxCell id="r-QJJK2opc04MjOTLEjq-39" style="edgeStyle=orthogonalEdgeStyle;rounded=0;orthogonalLoop=1;jettySize=auto;html=1;dashed=1;endArrow=none;endFill=0;" edge="1" parent="1">
          <mxGeometry relative="1" as="geometry">
            <mxPoint x="48" y="595" as="targetPoint" />
            <mxPoint x="48" y="95" as="sourcePoint" />
            <Array as="points">
              <mxPoint x="48" y="95" />
            </Array>
          </mxGeometry>
        </mxCell>
        <mxCell id="r-QJJK2opc04MjOTLEjq-40" value="Push Commit" style="html=1;verticalAlign=bottom;startArrow=oval;startFill=1;endArrow=block;startSize=8;edgeStyle=elbowEdgeStyle;elbow=vertical;curved=0;rounded=0;" edge="1" parent="1">
          <mxGeometry width="60" relative="1" as="geometry">
            <mxPoint x="48" y="135" as="sourcePoint" />
            <mxPoint x="158" y="135" as="targetPoint" />
          </mxGeometry>
        </mxCell>
        <mxCell id="r-QJJK2opc04MjOTLEjq-41" value="Trigger Running CI" style="html=1;verticalAlign=bottom;endArrow=block;edgeStyle=elbowEdgeStyle;elbow=vertical;curved=0;rounded=0;" edge="1" parent="1">
          <mxGeometry width="80" relative="1" as="geometry">
            <mxPoint x="158" y="165" as="sourcePoint" />
            <mxPoint x="298" y="165" as="targetPoint" />
          </mxGeometry>
        </mxCell>
        <mxCell id="r-QJJK2opc04MjOTLEjq-42" value="" style="html=1;points=[];perimeter=orthogonalPerimeter;outlineConnect=0;targetShapes=umlLifeline;portConstraint=eastwest;newEdgeStyle={&quot;edgeStyle&quot;:&quot;elbowEdgeStyle&quot;,&quot;elbow&quot;:&quot;vertical&quot;,&quot;curved&quot;:0,&quot;rounded&quot;:0};" vertex="1" parent="1">
          <mxGeometry x="153" y="190" width="10" height="75" as="geometry" />
        </mxCell>
        <mxCell id="r-QJJK2opc04MjOTLEjq-43" value="check new commit" style="html=1;verticalAlign=bottom;endArrow=block;edgeStyle=elbowEdgeStyle;elbow=vertical;curved=0;rounded=0;" edge="1" parent="1" target="r-QJJK2opc04MjOTLEjq-42">
          <mxGeometry relative="1" as="geometry">
            <mxPoint x="298" y="205" as="sourcePoint" />
            <Array as="points">
              <mxPoint x="218" y="205" />
            </Array>
          </mxGeometry>
        </mxCell>
        <mxCell id="r-QJJK2opc04MjOTLEjq-44" value="send New commit" style="html=1;verticalAlign=bottom;endArrow=open;dashed=1;endSize=8;edgeStyle=elbowEdgeStyle;elbow=vertical;curved=0;rounded=0;" edge="1" parent="1" source="r-QJJK2opc04MjOTLEjq-42">
          <mxGeometry relative="1" as="geometry">
            <mxPoint x="298" y="255" as="targetPoint" />
          </mxGeometry>
        </mxCell>
        <mxCell id="r-QJJK2opc04MjOTLEjq-45" value="" style="html=1;points=[];perimeter=orthogonalPerimeter;outlineConnect=0;targetShapes=umlLifeline;portConstraint=eastwest;newEdgeStyle={&quot;edgeStyle&quot;:&quot;elbowEdgeStyle&quot;,&quot;elbow&quot;:&quot;vertical&quot;,&quot;curved&quot;:0,&quot;rounded&quot;:0};" vertex="1" parent="1">
          <mxGeometry x="453" y="285" width="10" height="50" as="geometry" />
        </mxCell>
        <mxCell id="r-QJJK2opc04MjOTLEjq-46" value="Trigger Running Test" style="html=1;verticalAlign=bottom;endArrow=block;edgeStyle=elbowEdgeStyle;elbow=vertical;curved=0;rounded=0;" edge="1" parent="1" target="r-QJJK2opc04MjOTLEjq-45">
          <mxGeometry relative="1" as="geometry">
            <mxPoint x="299" y="295" as="sourcePoint" />
          </mxGeometry>
        </mxCell>
        <mxCell id="r-QJJK2opc04MjOTLEjq-47" value="Send Test Result" style="html=1;verticalAlign=bottom;endArrow=open;dashed=1;endSize=8;edgeStyle=elbowEdgeStyle;elbow=vertical;curved=0;rounded=0;" edge="1" parent="1" source="r-QJJK2opc04MjOTLEjq-45">
          <mxGeometry relative="1" as="geometry">
            <mxPoint x="608" y="325" as="targetPoint" />
            <Array as="points">
              <mxPoint x="578" y="325" />
            </Array>
          </mxGeometry>
        </mxCell>
        <mxCell id="r-QJJK2opc04MjOTLEjq-48" value="" style="html=1;points=[];perimeter=orthogonalPerimeter;outlineConnect=0;targetShapes=umlLifeline;portConstraint=eastwest;newEdgeStyle={&quot;edgeStyle&quot;:&quot;elbowEdgeStyle&quot;,&quot;elbow&quot;:&quot;vertical&quot;,&quot;curved&quot;:0,&quot;rounded&quot;:0};" vertex="1" parent="1">
          <mxGeometry x="453" y="365" width="10" height="80" as="geometry" />
        </mxCell>
        <mxCell id="r-QJJK2opc04MjOTLEjq-49" value="Generate Dashboard Report" style="html=1;verticalAlign=bottom;endArrow=block;edgeStyle=elbowEdgeStyle;elbow=vertical;curved=0;rounded=0;" edge="1" parent="1" target="r-QJJK2opc04MjOTLEjq-48">
          <mxGeometry x="0.0566" relative="1" as="geometry">
            <mxPoint x="299" y="380" as="sourcePoint" />
            <Array as="points">
              <mxPoint x="398" y="380" />
              <mxPoint x="398" y="370" />
            </Array>
            <mxPoint as="offset" />
          </mxGeometry>
        </mxCell>
        <mxCell id="r-QJJK2opc04MjOTLEjq-50" value="Get Dashboard Report" style="html=1;verticalAlign=bottom;endArrow=open;dashed=1;endSize=8;edgeStyle=elbowEdgeStyle;elbow=vertical;curved=0;rounded=0;" edge="1" parent="1" source="r-QJJK2opc04MjOTLEjq-48">
          <mxGeometry relative="1" as="geometry">
            <mxPoint x="299" y="440" as="targetPoint" />
          </mxGeometry>
        </mxCell>
        <mxCell id="r-QJJK2opc04MjOTLEjq-57" style="edgeStyle=orthogonalEdgeStyle;rounded=0;orthogonalLoop=1;jettySize=auto;html=1;dashed=1;endArrow=none;endFill=0;" edge="1" parent="1">
          <mxGeometry relative="1" as="geometry">
            <mxPoint x="757.5" y="601" as="targetPoint" />
            <mxPoint x="757.5" y="80" as="sourcePoint" />
          </mxGeometry>
        </mxCell>
        <mxCell id="r-QJJK2opc04MjOTLEjq-60" value="" style="html=1;points=[];perimeter=orthogonalPerimeter;outlineConnect=0;targetShapes=umlLifeline;portConstraint=eastwest;newEdgeStyle={&quot;edgeStyle&quot;:&quot;elbowEdgeStyle&quot;,&quot;elbow&quot;:&quot;vertical&quot;,&quot;curved&quot;:0,&quot;rounded&quot;:0};" vertex="1" parent="1">
          <mxGeometry x="754" y="460" width="10" height="80" as="geometry" />
        </mxCell>
        <mxCell id="r-QJJK2opc04MjOTLEjq-61" value="Call OpenAI API" style="html=1;verticalAlign=bottom;endArrow=block;edgeStyle=elbowEdgeStyle;elbow=vertical;curved=0;rounded=0;" edge="1" parent="1" target="r-QJJK2opc04MjOTLEjq-60">
          <mxGeometry x="0.0566" relative="1" as="geometry">
            <mxPoint x="300" y="475" as="sourcePoint" />
            <Array as="points">
              <mxPoint x="699" y="475" />
              <mxPoint x="699" y="465" />
            </Array>
            <mxPoint as="offset" />
          </mxGeometry>
        </mxCell>
        <mxCell id="r-QJJK2opc04MjOTLEjq-62" value="Response API" style="html=1;verticalAlign=bottom;endArrow=open;dashed=1;endSize=8;edgeStyle=elbowEdgeStyle;elbow=vertical;curved=0;rounded=0;" edge="1" parent="1" source="r-QJJK2opc04MjOTLEjq-60">
          <mxGeometry relative="1" as="geometry">
            <mxPoint x="300" y="535" as="targetPoint" />
          </mxGeometry>
        </mxCell>
      </root>
    </mxGraphModel>
  </diagram>
</mxfile>
